<?xml version="1.0" standalone="no"?>
<!DOCTYPE svg PUBLIC "-//W3C//DTD SVG 20010904//EN"
 "http://www.w3.org/TR/2001/REC-SVG-20010904/DTD/svg10.dtd">
<svg version="1.0" xmlns="http://www.w3.org/2000/svg"
 width="192.000000pt" height="192.000000pt" viewBox="0 0 192.000000 192.000000"
 preserveAspectRatio="xMidYMid meet">
<metadata>
Created by potrace 1.14, written by Peter Selinger 2001-2017
</metadata>
<g transform="translate(0.000000,192.000000) scale(0.100000,-0.100000)"
fill="#000000" stroke="none">
<path d="M45 1894 c12 -23 11 -30 -10 -61 -13 -19 -27 -53 -30 -76 -3 -23 -5
-397 -3 -832 3 -752 4 -792 22 -827 19 -36 19 -36 -3 -67 l-22 -31 946 0 945
0 -15 24 c-15 22 -14 26 9 61 14 20 28 55 31 78 3 23 5 398 3 832 -3 738 -4
792 -21 823 -17 32 -17 33 3 61 11 16 20 32 20 35 0 3 -425 6 -944 6 l-945 0
14 -26z"/>
</g>
</svg>
